<?xml version="1.0" encoding="UTF-8"?>
<svg width="140px" height="154px" viewBox="0 0 140 154" version="1.1" xmlns="http://www.w3.org/2000/svg" xmlns:xlink="http://www.w3.org/1999/xlink">
    <!-- Generator: Sketch 52.3 (67297) - http://www.bohemiancoding.com/sketch -->
    <title>LOGO</title>
    <desc>Created with Sketch.</desc>
    <defs>
        <filter x="-50.9%" y="-45.3%" width="201.8%" height="190.6%" filterUnits="objectBoundingBox" id="filter-1">
            <feOffset dx="0" dy="15" in="SourceAlpha" result="shadowOffsetOuter1"></feOffset>
            <feGaussianBlur stdDeviation="7.5" in="shadowOffsetOuter1" result="shadowBlurOuter1"></feGaussianBlur>
            <feColorMatrix values="0 0 0 0 0   0 0 0 0 0   0 0 0 0 0  0 0 0 0.15 0" type="matrix" in="shadowBlurOuter1" result="shadowMatrixOuter1"></feColorMatrix>
            <feMerge>
                <feMergeNode in="shadowMatrixOuter1"></feMergeNode>
                <feMergeNode in="SourceGraphic"></feMergeNode>
            </feMerge>
        </filter>
        <polygon id="path-2" points="0 125.866667 112.114778 125.866667 112.114778 1.4592 0 1.4592"></polygon>
    </defs>
    <g id="Video-Series" stroke="none" stroke-width="1" fill="none" fill-rule="evenodd">
        <g id="300X600_SLIDE1" transform="translate(-79.000000, -50.000000)">
            <g id="LOGO" filter="url(#filter-1)" transform="translate(93.000000, 48.000000)">
                <g id="Group-15">
                    <polygon id="Fill-1" fill="#FEFEFE" points="75.392 2.13333333 71.3534444 9.2672 73.7178889 13.6768 72.2168889 16.5056 69.0248889 10.8352 63.7618889 10.8352 61.2074444 15.2490667 65.4866667 22.9546667 63.7618889 26.0608 60.173 19.4688 52.6321111 19.4688 48.9207778 26.0074667 47.1453333 22.9546667 51.4583333 15.5072 48.8701111 10.9226667 43.7443333 10.976 40.5523333 16.64 38.7747778 13.7984 41.363 9.43786667 37.05 2.13333333 28.5084444 2.13333333 24.1954444 9.35253333 28.4725556 16.9408 33.3048889 16.9408 34.979 19.7290667 28.5591111 19.7290667 26.0595556 24.2645333 28.5928889 28.7616 37.3624444 28.7616 39.0344444 31.7632 30.6427778 31.7632 26.3234444 42.56 23.4692222 37.6042667 18.3265556 37.6042667 15.7045556 42.0522667 18.9303333 47.7184 15.7383333 47.7717333 13.1163333 43.36 4.313 43.36 0 50.7712 4.34888889 58.3573333 13.0614444 58.3573333 15.7383333 54.0501333 18.8944444 53.9989333 15.7045556 59.6288 16.9902222 65.9093333 24.5036667 65.9093333 25.8632222 62.7264 28.8483333 62.7264 31.3563333 69.6576 38.9141111 69.6576 37.1344444 72.6570667 28.4725556 72.6570667 25.9181111 77.1925333 28.4218889 81.6917333 34.8586667 81.6917333 33.3048889 84.6058667 27.9553333 84.6570667 23.5895556 92.1024 27.9025556 99.6864 36.67 99.6864 41.0695556 92.1877333 38.5678889 87.7056 40.1554444 84.864 43.3474444 90.4981333 48.4901111 90.4981333 51.0804444 85.9968 46.6766667 78.3253333 48.4394444 75.3258667 52.2352222 81.952 59.8795556 81.952 63.8484444 75.1850667 65.6597778 78.1504 61.2961111 85.7898667 63.9687778 90.3232 69.0607778 90.3232 72.3034444 84.5696 74.1506667 87.6565333 71.6152222 92.1024 75.6516667 99.6864 84.246 99.6864 88.5948889 92.1877333 84.2797778 84.6890667 79.4474444 84.6890667 77.7754444 81.8133333 84.3304444 81.8133333 86.8342222 77.2778667 84.2797778 72.7424 75.5672222 72.7424 74.0662222 69.7792 81.0856667 69.7792 83.5957778 62.7264 86.6083333 62.7264 87.9193333 66.0202667 95.5911111 66.0202667 96.843 59.8378667 93.651 54.2250667 96.6192222 54.1717333 99.1715556 58.5834667 107.749 58.5834667 112.114778 51.0848 107.799667 43.5328 99.2074444 43.5328 96.8767778 47.6864 93.3385556 47.5968 96.5854444 41.9285333 93.9951111 37.4293333 88.8524444 37.4293333 86.0657778 42.2912 81.9026667 31.9381333 73.8044444 31.9381333 75.392 28.8853333 84.0222222 28.8853333 86.5745556 24.4032 84.0728889 19.8677333 77.6023333 19.8677333 79.4136667 16.8170667 83.9356667 16.8512 88.3014444 9.40586667 83.9884444 2.13333333"></polygon>
                    <path d="M85.2122556,55.9624533 L82.0498111,55.9624533 L83.6310333,51.1560533 L85.2122556,55.9624533 Z M87.9187,66.0189867 L95.5904778,66.0189867 L83.5465889,36.0157867 L71.6040333,65.9784533 L79.1048111,65.9784533 L80.4517,62.7272533 L86.6077,62.7272533 L87.9187,66.0189867 Z M30.4331444,55.9581867 L27.2622556,55.9581867 L28.8477,51.08352 L30.4331444,55.9581867 Z M33.3021444,65.95072 L41.0055889,65.95072 L28.9595889,35.9581867 L16.9895889,65.9101867 L24.5051444,65.9101867 L25.8625889,62.7272533 L32.0565889,62.7272533 L33.3021444,65.95072 Z M54.8333667,38.4605867 L54.8333667,45.9784533 L62.6444778,45.9784533 L62.6444778,65.89952 L69.8961444,65.89952 L69.8961444,46.09792 L77.1520333,46.09792 L77.1520333,38.4605867 L54.8333667,38.4605867 Z M49.5429222,38.3837867 L49.5429222,58.6184533 L60.0541444,58.6184533 L60.0541444,65.9421867 L42.5087,65.9016533 L42.5087,38.3837867 L49.5429222,38.3837867 Z" id="Fill-2" fill="#D71920"></path>
                    <g id="Group-14" transform="translate(0.000000, 0.674987)">
                        <path d="M12.1004667,118.70208 C12.0265778,118.51008 11.9104667,118.33088 11.7204667,118.16448 C11.4544667,117.94688 11.1779111,117.85728 10.8105778,117.85728 C10.0252444,117.85728 9.61991111,118.33088 9.61991111,118.88128 C9.61991111,119.13728 9.70857778,119.583147 10.5319111,119.915947 L11.3784667,120.261547 C12.9364667,120.901547 13.3692444,121.797547 13.3692444,122.770347 C13.3692444,124.395947 12.2292444,125.507413 10.6459111,125.507413 C9.67057778,125.507413 9.08791111,125.138347 8.65724444,124.649813 C8.20124444,124.139947 8.00068889,123.574613 7.94791111,122.987947 L9.22935556,122.706347 C9.22935556,123.128747 9.37924444,123.525547 9.58402222,123.794347 C9.82257778,124.099413 10.1772444,124.304213 10.6839111,124.304213 C11.4671333,124.304213 12.0751333,123.728213 12.0751333,122.872747 C12.0751333,122.00448 11.4185778,121.64608 10.8612444,121.413547 L10.0505778,121.067947 C9.35391111,120.77568 8.33002222,120.18688 8.33002222,118.909013 C8.33002222,117.75488 9.21457778,116.65408 10.7979111,116.65408 C11.7078,116.65408 12.2292444,116.99968 12.4952444,117.232213 C12.7211333,117.43488 12.9618,117.72928 13.1391333,118.08768 L12.1004667,118.70208 Z" id="Fill-3" fill="#FEFEFE"></path>
                        <mask id="mask-3" fill="white">
                            <use xlink:href="#path-2"></use>
                        </mask>
                        <g id="Clip-6"></g>
                        <polygon id="Fill-5" fill="#FEFEFE" mask="url(#mask-3)" points="18.791 125.341867 20.083 125.341867 20.083 116.808533 18.791 116.808533"></polygon>
                        <polygon id="Fill-7" fill="#FEFEFE" mask="url(#mask-3)" points="25.9094556 125.341653 25.9094556 116.23232 32.0380111 122.719787 32.0380111 116.80832 33.3300111 116.80832 33.3300111 125.866453 27.2014556 119.378987 27.2014556 125.341653"></polygon>
                        <path d="M45.4123222,118.804267 C44.4771,117.946667 43.6031,117.8592 43.1217667,117.8592 C41.2872111,117.8592 40.0458778,119.226667 40.0458778,121.108267 C40.0458778,122.913067 41.3357667,124.304 43.1344333,124.304 C44.1456556,124.304 44.9309889,123.781333 45.4123222,123.320533 L45.4123222,124.869333 C44.5657667,125.3792 43.6791,125.509333 43.0964333,125.509333 C41.5658778,125.509333 40.6032111,124.805333 40.1092111,124.331733 C39.1233222,123.3952 38.7538778,122.309333 38.7538778,121.108267 C38.7538778,119.533867 39.3998778,118.445867 40.1092111,117.7696 C40.9811,116.9376 41.9944333,116.653867 43.1597667,116.653867 C43.9324333,116.653867 44.6776556,116.7968 45.4123222,117.2704 L45.4123222,118.804267 Z" id="Fill-8" fill="#FEFEFE" mask="url(#mask-3)"></path>
                        <polygon id="Fill-9" fill="#FEFEFE" mask="url(#mask-3)" points="55.4711333 118.037547 52.1039111 118.037547 52.1039111 120.200747 55.3698 120.200747 55.3698 121.427413 52.1039111 121.427413 52.1039111 124.11328 55.4711333 124.11328 55.4711333 125.34208 50.8119111 125.34208 50.8119111 116.808747 55.4711333 116.808747"></polygon>
                        <polygon id="Fill-10" fill="#FEFEFE" mask="url(#mask-3)" points="69.8488556 118.012587 68.3816333 118.012587 69.0888556 116.809387 71.1387444 116.809387 71.1387444 125.34272 69.8488556 125.34272"></polygon>
                        <path d="M80.7282556,120.787413 C81.0449222,120.454613 81.2222556,119.968213 81.2222556,119.520213 C81.2222556,119.059413 81.0449222,118.611413 80.7282556,118.304213 C80.4137,117.999147 79.9555889,117.819947 79.5270333,117.819947 C79.0562556,117.819947 78.6002556,118.037547 78.3215889,118.304213 C78.0450333,118.587947 77.8297,119.033813 77.8297,119.558613 C77.8297,120.032213 78.0070333,120.505813 78.3215889,120.825813 C78.6002556,121.096747 79.0435889,121.299413 79.5143667,121.299413 C79.9429222,121.299413 80.3989222,121.133013 80.7282556,120.787413 Z M77.7790333,124.93248 L79.7655889,122.35968 C79.6030333,122.400213 79.4615889,122.413013 79.3095889,122.413013 C78.3089222,122.413013 77.6777,121.965013 77.3357,121.619413 C76.9050333,121.184213 76.5630333,120.559147 76.5630333,119.675947 C76.5630333,118.816213 76.8923667,118.063147 77.3990333,117.538347 C77.9310333,116.987947 78.6403667,116.665813 79.5755889,116.665813 C80.7282556,116.665813 81.3974778,117.141547 81.7521444,117.512747 C82.1068111,117.883947 82.4889222,118.498347 82.4889222,119.443413 C82.4889222,120.057813 82.3495889,120.546347 82.0835889,121.069013 C81.7669222,121.709013 81.4375889,122.09088 81.0575889,122.592213 L78.7163667,125.634347 L77.7790333,124.93248 Z" id="Fill-11" fill="#FEFEFE" mask="url(#mask-3)"></path>
                        <path d="M87.3419444,118.983253 C87.3820556,118.292053 87.6712778,117.703253 88.0639444,117.321387 C88.6466111,116.758187 89.3559444,116.666453 89.9132778,116.666453 C90.5571667,116.666453 91.1905,116.796587 91.7351667,117.370453 C92.1785,117.833387 92.3431667,118.383787 92.3431667,118.996053 C92.3431667,119.405653 92.2671667,119.76192 92.0518333,120.12032 C91.8238333,120.49152 91.5325,120.711253 91.2918333,120.83712 C91.7225,121.00352 91.9885,121.300053 92.1278333,121.51552 C92.3685,121.87392 92.4825,122.34752 92.4825,122.83392 C92.4825,123.67872 92.1658333,124.33152 91.7605,124.74112 C91.1546111,125.353387 90.3566111,125.48352 89.6958333,125.48352 C89.0519444,125.48352 88.3552778,125.353387 87.8127222,124.76672 C87.4306111,124.35712 87.1519444,123.67872 87.0886111,123.02592 L88.3299444,123.02592 C88.3932778,123.40992 88.5706111,123.740587 88.7859444,123.945387 C88.9632778,124.111787 89.2799444,124.33152 89.8119444,124.33152 C90.2025,124.33152 90.5698333,124.17792 90.7999444,123.97312 C91.0385,123.740587 91.2432778,123.34592 91.2432778,122.76992 C91.2432778,122.48832 91.1905,122.07872 90.8611667,121.75872 C90.4938333,121.40032 90.0378333,121.37472 89.7718333,121.37472 L89.5185,121.37472 L89.5185,120.27392 L89.6958333,120.27392 C90.2426111,120.27392 90.5825,120.09472 90.7725,119.904853 C90.9772778,119.700053 91.1018333,119.380053 91.1018333,118.996053 C91.1018333,118.550187 90.9118333,118.279253 90.7725,118.138453 C90.4811667,117.858987 90.1265,117.820587 89.8731667,117.820587 C89.5712778,117.820587 89.2166111,117.871787 88.9379444,118.164053 C88.6466111,118.471253 88.5832778,118.934187 88.5832778,118.983253 L87.3419444,118.983253 Z" id="Fill-12" fill="#FEFEFE" mask="url(#mask-3)"></path>
                        <path d="M100.148789,118.16448 C99.9334556,118.384213 99.7941222,118.729813 99.7941222,119.11168 C99.7941222,119.50848 99.9461222,119.813547 100.136122,120.00768 C100.364122,120.25088 100.744122,120.39168 101.071344,120.39168 C101.402789,120.39168 101.780678,120.25088 102.010789,120.00768 C102.200789,119.813547 102.350678,119.50848 102.350678,119.11168 C102.350678,118.729813 102.213456,118.384213 101.996011,118.16448 C101.780678,117.95968 101.466122,117.821013 101.071344,117.821013 C100.680789,117.821013 100.364122,117.95968 100.148789,118.16448 M100.072789,121.861547 C99.8194556,122.117547 99.6801222,122.527147 99.6801222,122.898347 C99.6801222,123.231147 99.8067889,123.615147 100.060122,123.896747 C100.237456,124.099413 100.552011,124.331947 101.071344,124.331947 C101.592789,124.331947 101.907344,124.099413 102.084678,123.896747 C102.338011,123.615147 102.466789,123.231147 102.466789,122.898347 C102.466789,122.527147 102.325344,122.117547 102.072011,121.861547 C101.818678,121.605547 101.438678,121.46688 101.071344,121.46688 C100.706122,121.46688 100.326122,121.605547 100.072789,121.861547 M103.351344,121.592747 C103.668011,122.01728 103.731344,122.486613 103.731344,122.872747 C103.731344,123.741013 103.402011,124.331947 103.060011,124.690347 C102.667344,125.112747 102.036122,125.483947 101.071344,125.483947 C100.108678,125.483947 99.4774556,125.112747 99.0847889,124.690347 C98.7427889,124.331947 98.4155667,123.741013 98.4155667,122.872747 C98.4155667,122.486613 98.4767889,122.01728 98.7934556,121.592747 C98.9834556,121.323947 99.2874556,121.067947 99.6801222,120.901547 C99.3254556,120.75008 99.0847889,120.491947 98.9327889,120.261547 C98.7174556,119.915947 98.6287889,119.48288 98.6287889,119.09888 C98.6287889,118.42048 98.8715667,117.78048 99.3381222,117.31968 C99.6041222,117.06368 100.148789,116.66688 101.071344,116.66688 C101.996011,116.66688 102.540678,117.06368 102.806678,117.31968 C103.275344,117.78048 103.516011,118.42048 103.516011,119.09888 C103.516011,119.48288 103.427344,119.915947 103.212011,120.261547 C103.060011,120.491947 102.821456,120.75008 102.466789,120.901547 C102.857344,121.067947 103.161344,121.323947 103.351344,121.592747" id="Fill-13" fill="#FEFEFE" mask="url(#mask-3)"></path>
                    </g>
                </g>
            </g>
        </g>
    </g>
</svg>