<?xml version="1.0" encoding="UTF-8"?>
<svg width="300px" height="21px" viewBox="0 0 300 21" version="1.1" xmlns="http://www.w3.org/2000/svg" xmlns:xlink="http://www.w3.org/1999/xlink">
    <!-- Generator: Sketch 52.3 (67297) - http://www.bohemiancoding.com/sketch -->
    <title>RIBBON</title>
    <desc>Created with Sketch.</desc>
    <g id="Video-Series" stroke="none" stroke-width="1" fill="none" fill-rule="evenodd">
        <g id="300X250_SLIDE2" transform="translate(0.000000, -208.000000)">
            <g id="RIBBON" transform="translate(0.000000, 208.000000)">
                <rect id="Rectangle" fill="#D71920" x="0" y="0" width="300" height="20"></rect>
                <g id="RIBBON-LEFT-Copy" transform="translate(7.000000, 0.000000)">
                    <g id="Group-5">
                        <polygon id="Fill-1" fill="#D71920" points="0 0 0 20 166 20.0708 166 0"></polygon>
                        <g id="Group" transform="translate(8.000000, 5.000000)" fill="#FEFEFE" stroke="#FFFFFF" stroke-width="0.25">
                            <path d="M7.4365037,0.809444444 L7.24015802,0.809444444 L6.55847901,0.809444444 L6.35798519,0.809444444 L6.25842963,0.984444444 L5.96805926,1.49416667 L5.63620741,1.49416667 L5.43847901,1.49416667 L5.33754074,1.66638889 L5.1356642,2.015 L5.04302222,2.17472222 L5.04025679,2.17472222 L4.96144198,2.03861111 L4.7568,1.6775 L4.65586173,1.49972222 L4.45260247,1.5025 L4.12904691,1.50527778 L3.81655309,0.978888889 L3.71561481,0.809444444 L3.51926914,0.809444444 L2.84173827,0.809444444 L2.64677531,0.809444444 L2.54583704,0.976111111 L2.20430617,1.54555556 L2.09921975,1.71916667 L2.20015802,1.89694444 L2.5085037,2.44 L2.34534321,2.73166667 L2.25131852,2.9025 L2.34672593,3.07194444 L2.54860247,3.42611111 L2.6205037,3.5525 L2.59838025,3.60527778 L2.44351605,3.60527778 L2.03561481,3.60527778 L1.83788642,3.60527778 L1.73833086,3.77333333 L1.56963951,4.05805556 L0.923911111,4.05805556 L0.726182716,4.05805556 L0.62662716,4.22888889 L0.28371358,4.81361111 L0.181392593,4.98861111 L0.28371358,5.16361111 L0.628009877,5.76083333 L0.727565432,5.93305556 L0.926676543,5.93305556 L1.52539259,5.93305556 L1.59038025,6.2525 L1.6470716,6.52888889 L1.92914568,6.52888889 L2.3619358,6.52888889 L2.54583704,6.52888889 L2.53892346,6.54138889 L2.33704691,6.89972222 L2.23887407,7.07055556 L2.3356642,7.24138889 L2.48499753,7.50805556 L2.1545284,8.06916667 L2.05220741,8.24416667 L2.15314568,8.41916667 L2.49467654,9.01638889 L2.5942321,9.19 L2.79472593,9.19 L3.4902321,9.19 L3.68657778,9.19 L3.78613333,9.02055556 L4.11383704,8.46638889 L4.42633086,8.46638889 L4.62544198,8.46638889 L4.72499753,8.29416667 L4.93102222,7.94 L5.0153679,7.79277778 L5.06514568,7.79277778 L5.14534321,7.92611111 L5.35689877,8.28305556 L5.45645432,8.4525 L5.6528,8.4525 L5.97773827,8.4525 L6.27502222,9.00805556 L6.37181235,9.19 L6.57921975,9.19 L7.26089877,9.19 L7.45862716,9.19 L7.55956543,9.01916667 L7.90386173,8.4275 L8.00618272,8.2525 L7.90386173,8.0775 L7.5996642,7.55111111 L7.76835556,7.24694444 L7.86376296,7.07472222 L7.76559012,6.90527778 L7.56233086,6.55111111 L7.55541728,6.53722222 L7.72272593,6.53722222 L8.1596642,6.53722222 L8.44312099,6.53722222 L8.49842963,6.26083333 L8.56065185,5.95111111 L9.1248,5.95111111 L9.32114568,5.95111111 L9.42208395,5.78027778 L9.76914568,5.18861111 L9.87008395,5.015 L9.76914568,4.84 L9.42761481,4.24555556 L9.32805926,4.07194444 L9.12894815,4.07194444 L8.51087407,4.07194444 L8.33112099,3.76638889 L8.23294815,3.59694444 L8.03798519,3.59416667 L7.63008395,3.59138889 L7.47660247,3.58861111 L7.46830617,3.56638889 L7.54297284,3.43722222 L7.74484938,3.08444444 L7.84302222,2.91361111 L7.74761481,2.74277778 L7.57339259,2.4275 L7.87897284,1.90666667 L7.98405926,1.7275 L7.87897284,1.55111111 L7.53605926,0.9775 L7.4365037,0.809444444 Z M7.24015802,1.15666667 L7.58168889,1.72888889 L7.23600988,2.31638889 L6.87788642,2.31361111 L6.73408395,2.55388889 L7.2470716,2.55388889 L7.4448,2.91083333 L7.24292346,3.265 L6.55847901,3.265 L6.43265185,3.50388889 L7.06731852,3.50388889 L7.29684938,4.05527778 L7.00786173,4.54277778 L7.27749136,4.54277778 L7.6259358,3.93861111 L8.03383704,3.94138889 L8.23847901,4.29277778 L7.98267654,4.73861111 L8.26198519,4.74555556 L8.44588642,4.41916667 L9.12894815,4.41916667 L9.47047901,5.01361111 L9.1248,5.60388889 L8.4445037,5.60388889 L8.24124444,5.25666667 L8.00618272,5.26083333 L8.25921975,5.7025 L8.1596642,6.19 L7.72272593,6.19 L7.30376296,5.45388889 L7.0313679,5.45388889 L7.29408395,5.94 L6.98020741,6.48722222 L6.45339259,6.48722222 L6.57230617,6.72055556 L7.2636642,6.72472222 L7.46554074,7.0775 L7.26781235,7.43583333 L6.74791111,7.43583333 L6.88065185,7.66222222 L7.2636642,7.66222222 L7.60519506,8.2525 L7.26089877,8.84277778 L6.57921975,8.84277778 L6.25842963,8.24555556 L6.46030617,7.89555556 L6.31373827,7.6525 L6.05655309,8.10527778 L5.6528,8.10527778 L5.44124444,7.74833333 L5.78830617,7.14555556 L5.64312099,6.91361111 L5.32924444,7.44555556 L4.72361481,7.44555556 L4.42218272,6.92333333 L4.2825284,7.15944444 L4.63235556,7.765 L4.42633086,8.11916667 L4.01842963,8.11916667 L3.76539259,7.67472222 L3.63956543,7.89833333 L3.83729383,8.2525 L3.4902321,8.84277778 L2.79472593,8.84277778 L2.45319506,8.24555556 L2.79887407,7.65944444 L3.22198519,7.65527778 L3.34504691,7.42611111 L2.83482469,7.42611111 L2.6370963,7.07194444 L2.83897284,6.71361111 L3.52618272,6.71361111 L3.66721975,6.4775 L3.0685037,6.4775 L2.77121975,5.95111111 L3.06573827,5.43583333 L2.78504691,5.43583333 L2.3619358,6.18166667 L1.92914568,6.18166667 L1.82682469,5.68722222 L2.07986173,5.24277778 L1.82959012,5.24694444 L1.61803457,5.58583333 L0.926676543,5.58583333 L0.582380247,4.98861111 L0.923911111,4.40527778 L1.62218272,4.40527778 L1.82959012,4.7525 L2.08262716,4.74833333 L1.82682469,4.3025 L2.03561481,3.9525 L2.44351605,3.9525 L2.79196049,4.5525 L3.04776296,4.54833333 L2.77260247,4.08305556 L3.02010864,3.49138889 L3.67689877,3.49138889 L3.54415802,3.25527778 L2.84865185,3.25527778 L2.64815802,2.89972222 L2.84588642,2.54277778 L3.35472593,2.54277778 L3.22198519,2.32333333 L2.83897284,2.32333333 L2.50020741,1.72472222 L2.84173827,1.15666667 L3.51926914,1.15666667 L3.8608,1.73166667 L3.65615802,2.07472222 L3.79719506,2.29972222 L4.0502321,1.8525 L4.45675062,1.84972222 L4.66139259,2.21083333 L4.31986173,2.79694444 L4.46089877,3.03722222 L4.75541728,2.52194444 L5.35275062,2.52194444 L5.63620741,3.04138889 L5.7730963,2.79694444 L5.43433086,2.19 L5.63620741,1.84138889 L6.05378765,1.84138889 L6.30820741,2.28861111 L6.42712099,2.06638889 L6.2390716,1.71777778 L6.55847901,1.15666667 L7.24015802,1.15666667 Z" id="Fill-2"></path>
                            <path d="M29.472158,0.809444444 L29.2758123,0.809444444 L28.595516,0.809444444 L28.3950222,0.809444444 L28.294084,0.984444444 L28.0037136,1.49416667 L27.6732444,1.49416667 L27.4741333,1.49416667 L27.3745778,1.66638889 L27.1727012,2.015 L27.0800593,2.17472222 L27.0759111,2.17472222 L26.9970963,2.03861111 L26.7924543,1.6775 L26.691516,1.49972222 L26.4896395,1.5025 L26.1647012,1.50527778 L25.8522074,0.978888889 L25.7512691,0.809444444 L25.5549235,0.809444444 L24.8787753,0.809444444 L24.6838123,0.809444444 L24.5828741,0.976111111 L24.2399605,1.54555556 L24.1362568,1.71916667 L24.2358123,1.89694444 L24.544158,2.44 L24.3823802,2.73166667 L24.2869728,2.9025 L24.383763,3.07194444 L24.5842568,3.4275 L24.656158,3.5525 L24.6340346,3.60527778 L24.4791704,3.60527778 L24.0712691,3.60527778 L23.8749235,3.60527778 L23.7739852,3.77333333 L23.6052938,4.05805556 L22.9609481,4.05805556 L22.761837,4.05805556 L22.6622815,4.22888889 L22.3207506,4.81361111 L22.2184296,4.98861111 L22.3193679,5.16361111 L22.6636642,5.76083333 L22.7632198,5.93305556 L22.9623309,5.93305556 L23.5610469,5.93305556 L23.6260346,6.2525 L23.6827259,6.52888889 L23.9661827,6.52888889 L24.3975901,6.52888889 L24.5814914,6.52888889 L24.5745778,6.54277778 L24.3727012,6.89972222 L24.2759111,7.07055556 L24.3727012,7.24138889 L24.5206519,7.50805556 L24.1915654,8.06916667 L24.0878617,8.24416667 L24.1888,8.41916667 L24.5303309,9.01638889 L24.6298864,9.19 L24.8303802,9.19 L25.5258864,9.19 L25.7222321,9.19 L25.8217877,9.02055556 L26.1494914,8.46638889 L26.4619852,8.46638889 L26.6610963,8.46638889 L26.7606519,8.29416667 L26.9666765,7.94 L27.0510222,7.79277778 L27.1008,7.79277778 L27.1809975,7.92611111 L27.3925531,8.28305556 L27.4921086,8.4525 L27.689837,8.4525 L28.0133926,8.4525 L28.3106765,9.00805556 L28.4088494,9.19 L28.6162568,9.19 L29.2965531,9.19 L29.4956642,9.19 L29.5952198,9.01916667 L29.939516,8.4275 L30.041837,8.2525 L29.9408988,8.0775 L29.6353185,7.55111111 L29.8040099,7.24694444 L29.8994173,7.07472222 L29.8012444,6.90527778 L29.5993679,6.55111111 L29.5910716,6.53722222 L29.759763,6.53722222 L30.1953185,6.53722222 L30.4787753,6.53722222 L30.5354667,6.26083333 L30.5976889,5.95111111 L31.1604543,5.95111111 L31.3581827,5.95111111 L31.459121,5.78027778 L31.8048,5.18861111 L31.9057383,5.015 L31.8048,4.84 L31.4632691,4.24555556 L31.3637136,4.07194444 L31.1646025,4.07194444 L30.5465284,4.07194444 L30.3667753,3.76638889 L30.2686025,3.59694444 L30.0736395,3.59416667 L29.6657383,3.59138889 L29.5136395,3.58861111 L29.5039605,3.56638889 L29.5786272,3.43861111 L29.7818864,3.08444444 L29.8786765,2.91361111 L29.7832691,2.74277778 L29.6090469,2.4275 L29.9160099,1.90666667 L30.0197136,1.7275 L29.9146272,1.55111111 L29.5730963,0.9775 L29.472158,0.809444444 Z M29.2758123,1.15666667 L29.6173432,1.72888889 L29.2716642,2.31638889 L28.9135407,2.31361111 L28.7697383,2.55388889 L29.2827259,2.55388889 L29.481837,2.91083333 L29.2785778,3.265 L28.595516,3.265 L28.4683062,3.50388889 L29.1029728,3.50388889 L29.3338864,4.05527778 L29.043516,4.54277778 L29.3131457,4.54277778 L29.6629728,3.93861111 L30.0694914,3.94138889 L30.275516,4.29277778 L30.0183309,4.73861111 L30.2990222,4.74555556 L30.4829235,4.41916667 L31.1646025,4.41916667 L31.5061333,5.01361111 L31.1604543,5.60388889 L30.480158,5.60388889 L30.2782815,5.25666667 L30.041837,5.26083333 L30.2962568,5.7025 L30.1953185,6.19 L29.759763,6.19 L29.3408,5.45388889 L29.0670222,5.45388889 L29.331121,5.94 L29.0158617,6.48722222 L28.4904296,6.48722222 L28.6093432,6.72055556 L29.2993185,6.72472222 L29.5011951,7.0775 L29.3034667,7.43583333 L28.7835654,7.43583333 L28.9163062,7.66222222 L29.2993185,7.66222222 L29.6422321,8.2525 L29.2965531,8.84277778 L28.6162568,8.84277778 L28.2954667,8.24555556 L28.4959605,7.89555556 L28.3493926,7.6525 L28.0935901,8.10527778 L27.689837,8.10527778 L27.4782815,7.74833333 L27.8239605,7.14555556 L27.680158,6.91361111 L27.3662815,7.44555556 L26.7592691,7.44555556 L26.457837,6.92333333 L26.3195654,7.15944444 L26.6680099,7.765 L26.4619852,8.11916667 L26.054084,8.11916667 L25.8024296,7.67472222 L25.6752198,7.89833333 L25.8743309,8.2525 L25.5258864,8.84277778 L24.8303802,8.84277778 L24.4888494,8.24555556 L24.8345284,7.65944444 L25.2590222,7.65527778 L25.382084,7.42611111 L24.8718617,7.42611111 L24.6727506,7.07194444 L24.8760099,6.71361111 L25.561837,6.71361111 L25.7028741,6.4775 L25.104158,6.4775 L24.8068741,5.95111111 L25.1013926,5.43583333 L24.8207012,5.43583333 L24.3975901,6.18166667 L23.9661827,6.18166667 L23.862479,5.68722222 L24.115516,5.24277778 L23.8652444,5.24694444 L23.6536889,5.58583333 L22.9623309,5.58583333 L22.6180346,4.98861111 L22.9609481,4.40527778 L23.657837,4.40527778 L23.8652444,4.7525 L24.1182815,4.74833333 L23.862479,4.3025 L24.0712691,3.9525 L24.4791704,3.9525 L24.8276148,4.5525 L25.0834173,4.54833333 L24.8082568,4.08305556 L25.0571457,3.49138889 L25.7125531,3.49138889 L25.5811951,3.25527778 L24.8856889,3.25527778 L24.6838123,2.89972222 L24.8829235,2.54277778 L25.391763,2.54277778 L25.2590222,2.32333333 L24.8760099,2.32333333 L24.5372444,1.72472222 L24.8787753,1.15666667 L25.5549235,1.15666667 L25.897837,1.73166667 L25.6931951,2.07472222 L25.8328494,2.29972222 L26.0858864,1.8525 L26.4924049,1.84972222 L26.6970469,2.21083333 L26.355516,2.79694444 L26.4965531,3.03722222 L26.7910716,2.52194444 L27.3884049,2.52194444 L27.6732444,3.04138889 L27.8101333,2.79694444 L27.4713679,2.19 L27.6732444,1.84138889 L28.0908247,1.84138889 L28.3438617,2.28861111 L28.4627753,2.06638889 L28.2747259,1.71777778 L28.595516,1.15666667 L29.2758123,1.15666667 Z" id="Fill-3"></path>
                            <path d="M51.5085037,0.809444444 L51.312158,0.809444444 L50.6318617,0.809444444 L50.4299852,0.809444444 L50.3304296,0.984444444 L50.0400593,1.49416667 L49.7095901,1.49416667 L49.510479,1.49416667 L49.4109235,1.66638889 L49.2076642,2.015 L49.1150222,2.17472222 L49.1122568,2.17472222 L49.033442,2.03861111 L48.8288,1.6775 L48.7278617,1.49972222 L48.5246025,1.5025 L48.2010469,1.50527778 L47.8885531,0.978888889 L47.7876148,0.809444444 L47.5912691,0.809444444 L46.9137383,0.809444444 L46.720158,0.809444444 L46.617837,0.976111111 L46.2763062,1.54555556 L46.1712198,1.71916667 L46.272158,1.89694444 L46.5805037,2.44 L46.4187259,2.73166667 L46.3233185,2.9025 L46.4201086,3.07194444 L46.6206025,3.42611111 L46.6925037,3.5525 L46.6703802,3.60527778 L46.515516,3.60527778 L46.1076148,3.60527778 L45.9112691,3.60527778 L45.8103309,3.77333333 L45.6416395,4.05805556 L44.9972938,4.05805556 L44.7981827,4.05805556 L44.6986272,4.22888889 L44.3570963,4.81361111 L44.2533926,4.98861111 L44.3557136,5.16361111 L44.7000099,5.76083333 L44.7995654,5.93305556 L44.9986765,5.93305556 L45.5973926,5.93305556 L45.6623802,6.2525 L45.7190716,6.52888889 L46.0011457,6.52888889 L46.4339358,6.52888889 L46.617837,6.52888889 L46.6109235,6.54138889 L46.4090469,6.89972222 L46.3122568,7.07055556 L46.4076642,7.24138889 L46.5569975,7.50805556 L46.2265284,8.06916667 L46.1242074,8.24416667 L46.2251457,8.41916667 L46.5666765,9.01638889 L46.6662321,9.19 L46.8667259,9.19 L47.5622321,9.19 L47.7585778,9.19 L47.859516,9.02055556 L48.185837,8.46638889 L48.4983309,8.46638889 L48.697442,8.46638889 L48.7983802,8.29416667 L49.0030222,7.94 L49.0873679,7.79277778 L49.1385284,7.79277778 L49.2173432,7.92611111 L49.4288988,8.28305556 L49.529837,8.4525 L49.7248,8.4525 L50.0497383,8.4525 L50.3470222,9.00805556 L50.4451951,9.19 L50.6512198,9.19 L51.3328988,9.19 L51.5306272,9.19 L51.6315654,9.01916667 L51.9758617,8.4275 L52.0781827,8.2525 L51.9758617,8.0775 L51.6716642,7.55111111 L51.8403556,7.24694444 L51.935763,7.07472222 L51.8375901,6.90527778 L51.6343309,6.55111111 L51.6274173,6.53722222 L51.7961086,6.53722222 L52.2316642,6.53722222 L52.515121,6.53722222 L52.5704296,6.26083333 L52.6340346,5.95111111 L53.1968,5.95111111 L53.3945284,5.95111111 L53.494084,5.78027778 L53.8411457,5.18861111 L53.942084,5.015 L53.8411457,4.84 L53.4996148,4.24555556 L53.4000593,4.07194444 L53.2009481,4.07194444 L52.5828741,4.07194444 L52.403121,3.76638889 L52.3049481,3.59694444 L52.1099852,3.59416667 L51.702084,3.59138889 L51.5499852,3.58861111 L51.5403062,3.56638889 L51.6149728,3.43722222 L51.8168494,3.08444444 L51.9150222,2.91361111 L51.8196148,2.74277778 L51.6453926,2.4275 L51.9523556,1.90666667 L52.057442,1.7275 L51.9509728,1.55111111 L51.609442,0.9775 L51.5085037,0.809444444 Z M51.312158,1.15666667 L51.6550716,1.72888889 L51.3080099,2.31638889 L50.9498864,2.31361111 L50.806084,2.55388889 L51.3190716,2.55388889 L51.5168,2.91083333 L51.3149235,3.265 L50.6318617,3.265 L50.5046519,3.50388889 L51.1393185,3.50388889 L51.3702321,4.05527778 L51.0798617,4.54277778 L51.3494914,4.54277778 L51.6979358,3.93861111 L52.105837,3.94138889 L52.3118617,4.29277778 L52.0546765,4.73861111 L52.3339852,4.74555556 L52.5192691,4.41916667 L53.2009481,4.41916667 L53.542479,5.01361111 L53.1968,5.60388889 L52.5165037,5.60388889 L52.3146272,5.25666667 L52.0795654,5.26083333 L52.3312198,5.7025 L52.2316642,6.19 L51.7961086,6.19 L51.3771457,5.45388889 L51.1033679,5.45388889 L51.3674667,5.94 L51.0522074,6.48722222 L50.5267753,6.48722222 L50.6443062,6.72055556 L51.3356642,6.72472222 L51.5375407,7.0775 L51.3398123,7.43583333 L50.8199111,7.43583333 L50.9526519,7.66222222 L51.3356642,7.66222222 L51.6785778,8.2525 L51.3328988,8.84277778 L50.6512198,8.84277778 L50.3318123,8.24555556 L50.5323062,7.89555556 L50.3857383,7.6525 L50.1285531,8.10527778 L49.7248,8.10527778 L49.5132444,7.74833333 L49.8603062,7.14555556 L49.7165037,6.91361111 L49.4012444,7.44555556 L48.7956148,7.44555556 L48.4941827,6.92333333 L48.3545284,7.15944444 L48.7043556,7.765 L48.4983309,8.11916667 L48.0904296,8.11916667 L47.8373926,7.67472222 L47.7115654,7.89833333 L47.9106765,8.2525 L47.5622321,8.84277778 L46.8667259,8.84277778 L46.5251951,8.24555556 L46.8708741,7.65944444 L47.2953679,7.65527778 L47.4184296,7.42611111 L46.9068247,7.42611111 L46.7090963,7.07194444 L46.9109728,6.71361111 L47.5981827,6.71361111 L47.7392198,6.4775 L47.1405037,6.4775 L46.8432198,5.95111111 L47.1377383,5.43583333 L46.8570469,5.43583333 L46.4339358,6.18166667 L46.0011457,6.18166667 L45.8988247,5.68722222 L46.1518617,5.24277778 L45.9015901,5.24694444 L45.6900346,5.58583333 L44.9986765,5.58583333 L44.6543802,4.98861111 L44.9972938,4.40527778 L45.6941827,4.40527778 L45.9015901,4.7525 L46.1546272,4.74833333 L45.8988247,4.3025 L46.1076148,3.9525 L46.515516,3.9525 L46.8639605,4.5525 L47.119763,4.54833333 L46.8446025,4.08305556 L47.0921086,3.49138889 L47.7488988,3.49138889 L47.616158,3.25527778 L46.9206519,3.25527778 L46.720158,2.89972222 L46.9178864,2.54277778 L47.4267259,2.54277778 L47.2953679,2.32333333 L46.9109728,2.32333333 L46.5722074,1.72472222 L46.9137383,1.15666667 L47.5912691,1.15666667 L47.9341827,1.73166667 L47.728158,2.07472222 L47.8691951,2.29972222 L48.1222321,1.8525 L48.5287506,1.84972222 L48.7347753,2.21083333 L48.3918617,2.79694444 L48.5328988,3.03722222 L48.8274173,2.52194444 L49.4247506,2.52194444 L49.7095901,3.04138889 L49.8450963,2.79694444 L49.5063309,2.19 L49.7095901,1.84138889 L50.1257877,1.84138889 L50.3802074,2.28861111 L50.499121,2.06638889 L50.3110716,1.71777778 L50.6318617,1.15666667 L51.312158,1.15666667 Z" id="Fill-4"></path>
                        </g>
                    </g>
                </g>
            </g>
        </g>
    </g>
</svg>